<svg width="29" height="24" viewBox="0 0 29 24" fill="none" xmlns="http://www.w3.org/2000/svg">
<path d="M3.37207 19.2041H24.8779C27.0264 19.2041 28.1973 18.0547 28.1973 15.8848V3.38086C28.1973 1.21094 27.0264 0.0615234 24.8779 0.0615234H3.37207C1.22363 0.0615234 0.0527344 1.21094 0.0527344 3.38086V15.8848C0.0527344 18.0547 1.22363 19.2041 3.37207 19.2041ZM10.2471 14.2305V5.06738C10.2471 4.42285 10.9453 4.12207 11.4932 4.44434L19.1309 8.91309C19.7002 9.24609 19.7217 10.041 19.1416 10.374L11.4932 14.8213C10.9453 15.1436 10.2471 14.8535 10.2471 14.2305ZM8.46387 23.168H19.7861C20.4307 23.168 20.9463 22.6309 20.9463 22.0186C20.9463 21.3955 20.4307 20.8584 19.7861 20.8584H8.46387C7.81934 20.8584 7.30371 21.3955 7.30371 22.0186C7.30371 22.6309 7.81934 23.168 8.46387 23.168Z" fill="white"/>
</svg>
